<svg id="Layer_1" data-name="Layer 1" xmlns="http://www.w3.org/2000/svg" xmlns:xlink="http://www.w3.org/1999/xlink" viewBox="0 0 369.6 620"><defs><style>.cls-1{fill:#fff;}.cls-2{fill:url(#未命名的渐变_68);}.cls-3{fill:url(#未命名的渐变_68-2);}.cls-4{fill:url(#未命名的渐变_68-3);}</style><linearGradient id="未命名的渐变_68" x1="286.63" y1="176.42" x2="411.95" y2="320.09" gradientUnits="userSpaceOnUse"><stop offset="0" stop-color="#65be92"/><stop offset="0.51" stop-color="#3eb8a3"/><stop offset="1" stop-color="#26a9af"/></linearGradient><linearGradient id="未命名的渐变_68-2" x1="47.84" y1="174.97" x2="173.17" y2="318.64" xlink:href="#未命名的渐变_68"/><linearGradient id="未命名的渐变_68-3" x1="174.03" y1="64.89" x2="299.36" y2="208.56" xlink:href="#未命名的渐变_68"/></defs><title>logo</title><polygon class="cls-1" points="259.83 549.42 281.56 549.42 307.49 530.72 296.63 523.05 259.83 549.42"/><polygon class="cls-1" points="316.72 457.93 320.06 457.94 320.09 445.44 316.75 445.43 303.78 445.4 300.43 445.39 300.4 457.89 303.75 457.9 316.72 457.93"/><path class="cls-1" d="M443.65,610.1l-16.73,11.77,10.56,8L455,616.91a6.28,6.28,0,0,0,2.35-4.89l.06-25.58,16.89,0,0-12.79-101.39-.25,0,12.79,16.46,0-.06,25.57a6.28,6.28,0,0,0,2.49,5l61.63,43.74,21.34,0L403,609.53l.06-22.92,40.61-.19Z" transform="translate(-113.2 -111)"/><path class="cls-1" d="M339.33,649.54l-.07-49.22-13.44-.3.07,47.74v5.94a6.75,6.75,0,0,0,6.81,6.51H345V649.54Z" transform="translate(-113.2 -111)"/><path class="cls-1" d="M256,649.25,256,600h13.44l.07,47.74v5.94a6.75,6.75,0,0,1-6.81,6.51H250.35v-11Z" transform="translate(-113.2 -111)"/><path class="cls-1" d="M292,587.89v61.38H280.67v11h17.18a7.88,7.88,0,0,0,7.88-7.88h0V587.89Z" transform="translate(-113.2 -111)"/><path class="cls-1" d="M335.83,564.58H272.25v12.61l57.46.14V590h14V573C343.69,568.33,340.45,564.58,335.83,564.58Z" transform="translate(-113.2 -111)"/><path class="cls-1" d="M268.82,556.33H255.44v9.23a27.7,27.7,0,0,1-5,16.4c-3,4.62-8.73,7.81-8.73,7.81h16.29s5.1-3.55,6.12-5.22c3.24-5.35,4.65-8.51,4.65-15.34Z" transform="translate(-113.2 -111)"/><polygon class="cls-1" points="54.02 445.37 35.32 445.46 35.32 457.95 53.91 457.76 54.02 445.37"/><path class="cls-1" d="M167.08,641.08V586c0-2.49-2.61-4.8-5.1-4.8H148.52v12.14h7.39V640.3c0,4.76.29,5.75-1.8,9.77L148.3,660H161l2.57-4.8s1.78,4.8,9.91,4.8H213.2V649H174.87C170.12,649,167.08,646.56,167.08,641.08Z" transform="translate(-113.2 -111)"/><path class="cls-1" d="M198.17,577.4V556.27l-12.37.07V577.4H171v12.14h10.61a3.14,3.14,0,0,1,3,4.21l-12.21,47.33h12.36L197,592.27a4.19,4.19,0,0,1,3.95-2.76l12.28,0V577.4Z" transform="translate(-113.2 -111)"/><path class="cls-1" d="M138.85,568.83H113.2v80.75h10.89V581.27h9.28V638H128.5v11.55h10.35a5.41,5.41,0,0,0,5.41-5.41V574.24A5.41,5.41,0,0,0,138.85,568.83Z" transform="translate(-113.2 -111)"/><polygon class="cls-1" points="87.41 481.23 81.49 504.82 88.13 530.08 100 530.08 87.41 481.23"/><path class="cls-1" d="M133.14,705.11c-.71,1.16-1.43,2.35-2.25,3.5v22.15h-3.44V712.9a42.34,42.34,0,0,1-11.6,9.19,17.79,17.79,0,0,0-2.18-2.82A37.68,37.68,0,0,0,129,705.11H114.63v-3.23h29.12v3.23Zm.27,5.17c3.81,2.55,9,6.4,11.47,9l-2.65,2.45c-2.28-2.62-7.31-6.67-11.19-9.42Z" transform="translate(-113.2 -111)"/><path class="cls-1" d="M174,727.5H159.57V700.75h2.76v24H174Zm-6.4-11a20.06,20.06,0,0,1-3.91,5.68,13.21,13.21,0,0,0-1.26-2.62,22.71,22.71,0,0,0,4.87-7.31h-4.22v-2.65h4.52v-9.93h2.65v9.93h4.69v2.65h-4.69v.34c1,.92,3.95,4.22,4.59,5.07l-1.74,2.14c-.54-1-1.8-2.69-2.86-4.12v8.2H167.6Zm-2.93-8a21.88,21.88,0,0,0-1.33-5.82l2-.68a22.77,22.77,0,0,1,1.46,5.82ZM175,702.59c-.82,2-1.8,4.39-2.55,5.89l-1.84-.58a49,49,0,0,0,1.87-6Zm14.39,11.16h-3.27v17h-3v-17h-4c0,6-.48,11.87-3.1,17.25a11.7,11.7,0,0,0-2.48-1.91c2.31-5,2.59-10.44,2.59-15.55V703.1a49.69,49.69,0,0,0,10.65-3.64l2.62,2.31a47.91,47.91,0,0,1-10.27,3.3v5.75h10.31Z" transform="translate(-113.2 -111)"/><path class="cls-1" d="M210.53,724c.61.37,1.26.92,2.25,1.5,2.21,1.33,5.21,1.53,9,1.53a109.22,109.22,0,0,0,12.35-.71,13.41,13.41,0,0,0-1,3.3c-2.35.17-8.2.37-11.53.37-4.18,0-7-.41-9.42-1.8-1.46-.88-2.55-2-3.33-2-1.05,0-2.65,2.08-4.15,4.25l-2.11-2.93a16.68,16.68,0,0,1,4.83-3.81v-9h-4.32v-2.93h7.42ZM209.1,707.7a38.18,38.18,0,0,0-5.17-5.68l2.28-1.77a43.14,43.14,0,0,1,5.27,5.44Zm11.06,9.39a13.37,13.37,0,0,1-4.66,8.51,11.48,11.48,0,0,0-2.35-2.28,10.5,10.5,0,0,0,3.84-6.23h-4.29v-3h4.69c.07-.78.07-1.53.07-2.28v-3.2h-4.52v-3h4.52v-5.17h3.13v5.17h4.83v-5.17h3.13v5.17h4.15v3h-4.15v5.48h4.8v3h-4.8v8.17h-3.13v-8.17Zm.44-5.27c0,.71,0,1.46-.07,2.25h4.9v-5.48H220.6Z" transform="translate(-113.2 -111)"/><path class="cls-1" d="M259.35,700.52a46.73,46.73,0,0,1-3.37,6.63V730.8h-3.3V712a41.09,41.09,0,0,1-3.33,3.78,20.21,20.21,0,0,0-2.08-3.16,35.77,35.77,0,0,0,8.91-13.06Zm13.95,26.54c1.63,0,1.91-1.43,2.14-7.11a9.13,9.13,0,0,0,3.13,1.5c-.41,6.43-1.26,8.74-5,8.74H268c-3.71,0-4.76-1.19-4.76-5.48v-4.83a40.5,40.5,0,0,1-4.35,2.48,15.26,15.26,0,0,0-2.31-2.42,47.71,47.71,0,0,0,6.67-3.91V700.14h3.4v13.27a41.49,41.49,0,0,0,8.3-9.15l3,2a51.12,51.12,0,0,1-11.33,11.33v7.18c0,1.91.27,2.28,1.77,2.28Z" transform="translate(-113.2 -111)"/><path class="cls-1" d="M323.23,721.81a41.24,41.24,0,0,1-10.21,9,22.8,22.8,0,0,0-2.59-2.21,31,31,0,0,0,9.42-8.13Zm14.19-19.73V717.7H314V702.08ZM317.25,714.7H334v-9.63H317.25Zm14,5.72a71.82,71.82,0,0,1,9.46,8.44l-3,1.87a66.54,66.54,0,0,0-9.25-8.68Z" transform="translate(-113.2 -111)"/><path class="cls-1" d="M383.89,707.59s0,1.12,0,1.57c-.51,13.27-.92,18.07-2.28,19.66a3.89,3.89,0,0,1-3,1.57,35,35,0,0,1-5.38,0,8,8,0,0,0-1.12-3.27c2.21.17,4.22.17,5.1.17a1.55,1.55,0,0,0,1.46-.51c1-1,1.46-5.34,1.87-16H369.64a26.26,26.26,0,0,1-12,19.49,10.84,10.84,0,0,0-2.52-2.28,23.79,23.79,0,0,0,11.23-17.22H356v-3.16h10.72c.07-1.29.1-2.55.1-3.71v-4.22H370v4.22c0,1.19,0,2.42-.1,3.71Zm-22.08-.82a30.21,30.21,0,0,0-3.33-5.14l2.72-1.16a26.7,26.7,0,0,1,3.54,5Zm12.42,15.51a37.16,37.16,0,0,0-4.32-6.53l2.69-1.26a35.93,35.93,0,0,1,4.42,6.33Z" transform="translate(-113.2 -111)"/><path class="cls-1" d="M398.79,714.87a35.65,35.65,0,0,0,1.63-8.74l2.35.34a38.39,38.39,0,0,1-1.53,9.25Zm4.76-15.31h3V730.8h-3Zm27,28.07v2.31H409v-2.31h9.42v-1.7h-7.69v-2.25h7.69v-1.5h-7.18v-8.74h7.18V712h-9v-2.18l-1.22.51a31.43,31.43,0,0,0-1.5-4.9l2.08-.78a34.83,34.83,0,0,1,1.67,4.73l-.88.37h8.91v-1.33c-2.35.1-4.73.17-6.91.17a7.56,7.56,0,0,0-.61-2,163.12,163.12,0,0,0,17-1.09l1.4,2c-2.25.27-5,.51-8,.71v1.5h9.22V712h-9.22v1.4h7.42v8.74h-7.42v1.5h7.93v2.25h-7.93v1.7ZM414.2,704.16h-4.7v-2.25h4.7v-2.35h2.72v2.35h5.85v-2.35h2.76v2.35h4.73v2.25h-4.73v1.6h-2.76v-1.6h-5.85v1.7H414.2Zm-.14,12.79h4.35v-1.74h-4.35Zm4.35,3.47v-1.77h-4.35v1.77Zm2.89-5.21v1.74h4.46v-1.74Zm4.46,3.44h-4.46v1.77h4.46Z" transform="translate(-113.2 -111)"/><path class="cls-1" d="M454,700.62a54.51,54.51,0,0,1-3.37,7.14v23h-3v-18.3a35.71,35.71,0,0,1-2.93,3.57,20.86,20.86,0,0,0-1.74-3.2,37.82,37.82,0,0,0,8.06-13.1Zm11.91,8.2v18.3c0,1.63-.34,2.55-1.36,3.1a11.29,11.29,0,0,1-4.69.61,11.4,11.4,0,0,0-1.12-3.16c1.53,0,3,0,3.44,0s.61-.1.61-.54v-18.3h-4.59a32.65,32.65,0,0,1-3.27,5.58,19.72,19.72,0,0,0-2.59-2.08c2.55-3,4.49-7.79,5.65-12.59l3.13.68a48.76,48.76,0,0,1-1.74,5.48h12.86l.51-.1,2.21.44c-.44,2.59-1.05,5.58-1.5,7.48l-2.69-.51c.24-1.16.48-2.76.68-4.39Zm-5.58,6.06a33.86,33.86,0,0,1-4.8,11.47,18,18,0,0,0-2.69-1.7,26.37,26.37,0,0,0,4.39-10.34Zm10.31-.88a43.2,43.2,0,0,1,4,11.16l-3,1.09a44.41,44.41,0,0,0-3.81-11.33Z" transform="translate(-113.2 -111)"/><path class="cls-2" d="M482.8,242.44s-18.4-17.18-28.83-27.6c-2-2-6.75-6.13-7-11.91l-.3-10.87v-17.6a63.36,63.36,0,0,0-2-15.81,58.33,58.33,0,0,0-14.5-27.43c-11.62-12.79-28.37-20.22-47-20.22H295.79a63.07,63.07,0,0,0-32.62,9c-18.61,10.34-31,32-31,53.08v37.06l.09,33.6h.11v56.53c0,13.89,5.27,26.17,6.95,28.85a63.53,63.53,0,0,0,56.52,34.61h87.46a64,64,0,0,0,43.38-17.18,57.74,57.74,0,0,0,12.62-15.82c2.92-5.34,7.54-18,7.54-27.6v-4.45H427.22a38.55,38.55,0,0,1-6.37,24.08c-9.2,12.88-17.79,19.63-37.6,20.72H295.79a43.33,43.33,0,0,1-6.49-.49c-10.57-2.53-19.67-5.89-26.33-14.22-7.75-9.69-10.2-18.89-10.38-28.49V243.79h.14l-.09-71.31a43.25,43.25,0,0,1,43.15-41.21h87.46A43.76,43.76,0,0,1,424.52,159c1.23,3.07,3.07,9.81,3.07,14.11,0,7.6-.32,29.19-.32,29.19,0,9.72,4.61,18,10.13,24.18,2.83,3.15,16.56,15.95,16.56,15.95l-18.4,18.4a28.54,28.54,0,0,0-8.29,22.06h19.9a10.17,10.17,0,0,1,3.12-8Z" transform="translate(-113.2 -111)"/><polygon class="cls-3" points="233.43 303.81 138.96 303.81 104.22 338.72 104.22 304.11 59.47 304.51 59.47 91.72 104 91.72 104 71.99 39.74 71.99 39.74 324.24 85.93 324.26 85.93 386 148.14 324.26 148.42 324.26 148.42 324.24 253.59 324.24 253.59 267.71 233.85 267.71 233.43 303.81"/><polygon class="cls-4" points="253.59 217.58 253.59 71.99 154.39 71.99 154.42 91.72 233.85 91.72 233.85 217.58 253.59 217.58"/></svg>