<?xml version="1.0" encoding="UTF-8"?>
<svg xmlns="http://www.w3.org/2000/svg" xmlns:xlink="http://www.w3.org/1999/xlink" viewBox="0 0 80 80" version="1.1" fill="#000000"><g id="surface1" fill="#000000"><path style=" " d="M 12 12 C 9.800781 12 8 13.800781 8 16 L 8 40 C 8 42.199219 9.800781 44 12 44 L 14 44 L 14 52.414063 L 22.414063 44 L 52 44 C 54.199219 44 56 42.199219 56 40 L 56 16 C 56 13.800781 54.199219 12 52 12 Z M 12 14 L 52 14 C 53.117188 14 54 14.882813 54 16 L 54 40 C 54 41.117188 53.117188 42 52 42 L 21.585938 42 L 16 47.585938 L 16 42 L 12 42 C 10.882813 42 10 41.117188 10 40 L 10 16 C 10 14.882813 10.882813 14 12 14 Z M 14 17 C 13.449219 17 13 17.449219 13 18 C 13 18.550781 13.449219 19 14 19 C 14.550781 19 15 18.550781 15 18 C 15 17.449219 14.550781 17 14 17 Z M 18 17 C 17.449219 17 17 17.449219 17 18 C 17 18.550781 17.449219 19 18 19 C 18.550781 19 19 18.550781 19 18 C 19 17.449219 18.550781 17 18 17 Z M 22 17 C 21.449219 17 21 17.449219 21 18 C 21 18.550781 21.449219 19 22 19 C 22.550781 19 23 18.550781 23 18 C 23 17.449219 22.550781 17 22 17 Z M 26 17 C 25.449219 17 25 17.449219 25 18 C 25 18.550781 25.449219 19 26 19 C 26.550781 19 27 18.550781 27 18 C 27 17.449219 26.550781 17 26 17 Z M 30 17 C 29.449219 17 29 17.449219 29 18 C 29 18.550781 29.449219 19 30 19 C 30.550781 19 31 18.550781 31 18 C 31 17.449219 30.550781 17 30 17 Z M 34 17 C 33.449219 17 33 17.449219 33 18 C 33 18.550781 33.449219 19 34 19 C 34.550781 19 35 18.550781 35 18 C 35 17.449219 34.550781 17 34 17 Z M 38 17 C 37.449219 17 37 17.449219 37 18 C 37 18.550781 37.449219 19 38 19 C 38.550781 19 39 18.550781 39 18 C 39 17.449219 38.550781 17 38 17 Z M 42 17 C 41.449219 17 41 17.449219 41 18 C 41 18.550781 41.449219 19 42 19 C 42.550781 19 43 18.550781 43 18 C 43 17.449219 42.550781 17 42 17 Z M 46 17 C 45.449219 17 45 17.449219 45 18 C 45 18.550781 45.449219 19 46 19 C 46.550781 19 47 18.550781 47 18 C 47 17.449219 46.550781 17 46 17 Z M 50 17 C 49.449219 17 49 17.449219 49 18 C 49 18.550781 49.449219 19 50 19 C 50.550781 19 51 18.550781 51 18 C 51 17.449219 50.550781 17 50 17 Z M 14 21 C 13.449219 21 13 21.449219 13 22 C 13 22.550781 13.449219 23 14 23 C 14.550781 23 15 22.550781 15 22 C 15 21.449219 14.550781 21 14 21 Z M 32.011719 22.28125 C 28.320313 22.28125 26 24.867188 26 29.03125 C 26 33.210938 28.300781 35.769531 32.011719 35.769531 C 32.839844 35.769531 33.613281 35.644531 34.292969 35.40625 L 35.34375 36.824219 L 37.429688 36.824219 L 35.816406 34.484375 C 37.214844 33.40625 38 31.484375 38 29.03125 C 38 24.867188 35.691406 22.28125 32.011719 22.28125 Z M 32.011719 24.144531 C 34.425781 24.144531 35.957031 26.035156 35.957031 29.03125 C 35.957031 30.671875 35.476563 31.972656 34.621094 32.703125 L 33.65625 31.511719 L 31.613281 31.511719 L 33.230469 33.746094 C 32.839844 33.851563 32.4375 33.90625 32.015625 33.90625 C 29.574219 33.90625 28.050781 32.035156 28.050781 29.03125 C 28.050781 26.027344 29.585938 24.144531 32.011719 24.144531 Z M 14 25 C 13.449219 25 13 25.449219 13 26 C 13 26.550781 13.449219 27 14 27 C 14.550781 27 15 26.550781 15 26 C 15 25.449219 14.550781 25 14 25 Z M 14 29 C 13.449219 29 13 29.449219 13 30 C 13 30.550781 13.449219 31 14 31 C 14.550781 31 15 30.550781 15 30 C 15 29.449219 14.550781 29 14 29 Z M 14 33 C 13.449219 33 13 33.449219 13 34 C 13 34.550781 13.449219 35 14 35 C 14.550781 35 15 34.550781 15 34 C 15 33.449219 14.550781 33 14 33 Z M 58 35 L 58 37 L 68 37 C 69.117188 37 70 37.882813 70 39 L 70 63 C 70 64.117188 69.117188 65 68 65 L 64 65 L 64 70.585938 L 58.414063 65 L 28 65 C 26.882813 65 26 64.117188 26 63 L 26 46 L 24 46 L 24 63 C 24 65.199219 25.800781 67 28 67 L 57.585938 67 L 66 75.414063 L 66 67 L 68 67 C 70.199219 67 72 65.199219 72 63 L 72 39 C 72 36.800781 70.199219 35 68 35 Z M 14 37 C 13.449219 37 13 37.449219 13 38 C 13 38.550781 13.449219 39 14 39 C 14.550781 39 15 38.550781 15 38 C 15 37.449219 14.550781 37 14 37 Z M 62 40 C 61.449219 40 61 40.449219 61 41 C 61 41.550781 61.449219 42 62 42 C 62.550781 42 63 41.550781 63 41 C 63 40.449219 62.550781 40 62 40 Z M 66 40 C 65.449219 40 65 40.449219 65 41 C 65 41.550781 65.449219 42 66 42 C 66.550781 42 67 41.550781 67 41 C 67 40.449219 66.550781 40 66 40 Z M 46.859375 44.171875 L 41.925781 57.828125 L 44.105469 57.828125 L 45.363281 54.203125 L 50.566406 54.203125 L 51.816406 57.828125 L 54.066406 57.828125 L 49.140625 44.171875 Z M 47.890625 46.652344 L 48.050781 46.652344 L 50.03125 52.421875 L 45.90625 52.421875 Z M 30 48 C 29.449219 48 29 48.449219 29 49 C 29 49.550781 29.449219 50 30 50 C 30.550781 50 31 49.550781 31 49 C 31 48.449219 30.550781 48 30 48 Z M 30 52 C 29.449219 52 29 52.449219 29 53 C 29 53.550781 29.449219 54 30 54 C 30.550781 54 31 53.550781 31 53 C 31 52.449219 30.550781 52 30 52 Z M 30 56 C 29.449219 56 29 56.449219 29 57 C 29 57.550781 29.449219 58 30 58 C 30.550781 58 31 57.550781 31 57 C 31 56.449219 30.550781 56 30 56 Z M 30 60 C 29.449219 60 29 60.449219 29 61 C 29 61.550781 29.449219 62 30 62 C 30.550781 62 31 61.550781 31 61 C 31 60.449219 30.550781 60 30 60 Z " fill="#000000"/></g></svg>
